# xmcd
#
# Track frame offsets:
#	200
#	15267
#	28015
#	42052
#	56230
#	68940
#	84865
#	95092
#	109160
#	119042
#	130312
#	146880
#	162647
#	175487
#	187287
#	201317
#	213242
#	226952
#
# Disc length: 3186 seconds
#
# Revision: 0
# Processed by: cddbd v1.5.1PL0 Copyright (c) Steve Scherf et al.
# Submitted via: audiograbber 1.83.01
#
DISCID=120c7012
DTITLE=Various Artist - IBMA Presents Long Journey Home
DYEAR=1992
DGENRE=Bluegrass
TTITLE0=Sem Tam (Czechoslovakia) - Jednou Dlouho Spat
TTITLE1=Bluegrass 43 (France) - Marche Turque
TTITLE2=Hot Stuff (Italy) - Bitter Tears
TTITLE3=Spruce Pine (Netherlands) - When the Day Is Through
TTITLE4=Lorne Buck and the Flatland Mountaineers (Canada) - West Side of the Hill
TTITLE5=Fingers and Co. (Great Britain) - Smoky Mountain Memories
TTITLE6=Lake Country Boys (Finland) - I Worship You
TTITLE7=Petr Kus Quartet (Czechoslovakia) - Zlata Rybka
TTITLE8=Bluegrass Ramblers (Great Britain) - Forgive and Forget
TTITLE9=Jerrycan (Netherlands) - Good Morning Sunshine
TTITLE10=Echo Mountain Band (Great Britain) - Prodigal Father
TTITLE11=Straight Arrow (Australia) - River of Love
TTITLE12=Grassoline (Netherlands) - A Home So Bright
TTITLE13=Shin Akimotot Band (Japan) - Don't Bother to Cry
TTITLE14=Thrifts (Great Britain) - Don't Step Over an Old Love
TTITLE15=Kazuhiro Inaba and Friends (Japan) - Worries On My Mind
TTITLE16=Tom Travis Band (Great Britain) - I'll Break Out Again Tonight
TTITLE17=Modrotisk (Czechoslovakia) - Detsky Sen
EXTD=
EXTT0=
EXTT1=
EXTT2=
EXTT3=
EXTT4=
EXTT5=
EXTT6=
EXTT7=
EXTT8=
EXTT9=
EXTT10=
EXTT11=
EXTT12=
EXTT13=
EXTT14=
EXTT15=
EXTT16=
EXTT17=
PLAYORDER=
